{
	"asset":{
		"generator":"Khronos glTF Blender I/O v3.5.30",
		"version":"2.0"
	},
	"extensionsUsed":[
		"KHR_materials_specular",
		"KHR_materials_ior"
	],
	"scene":0,
	"scenes":[
		{
			"name":"Scene",
			"nodes":[
				0,
				1
			]
		}
	],
	"nodes":[
		{
			"mesh":0,
			"name":"cheese",
			"rotation":[
				0.7071068286895752,
				0,
				0,
				0.7071068286895752
			],
			"scale":[
				0.009999999776482582,
				0.009999999776482582,
				0.009999999776482582
			]
		},
		{
			"mesh":1,
			"name":"thick",
			"rotation":[
				0.7071068286895752,
				0,
				0,
				0.7071068286895752
			],
			"scale":[
				0.009999999776482582,
				0.009999999776482582,
				0.009999999776482582
			],
			"translation":[
				0,
				0.008166832849383354,
				0
			]
		}
	],
	"materials":[
		{
			"doubleSided":true,
			"extensions":{
				"KHR_materials_specular":{
					"specularColorFactor":[
						2.371357614441398,
						2.371357614441398,
						2.371357614441398
					]
				},
				"KHR_materials_ior":{
					"ior":1.4500000476837158
				}
			},
			"name":"yellow_mozzarella",
			"pbrMetallicRoughness":{
				"baseColorFactor":[
					0.9748427867889404,
					1,
					0.3460000157356262,
					1
				],
				"metallicFactor":0.5,
				"roughnessFactor":0.5527864098548889
			}
		},
		{
			"doubleSided":true,
			"extensions":{
				"KHR_materials_specular":{
					"specularColorFactor":[
						2.371357614441398,
						2.371357614441398,
						2.371357614441398
					]
				},
				"KHR_materials_ior":{
					"ior":1.4500000476837158
				}
			},
			"name":"phong13.001",
			"pbrMetallicRoughness":{
				"baseColorFactor":[
					0.6430000066757202,
					0.5374996662139893,
					0.33821800351142883,
					1
				],
				"metallicFactor":0.5,
				"roughnessFactor":0.5527864098548889
			}
		},
		{
			"doubleSided":true,
			"extensions":{
				"KHR_materials_specular":{
					"specularColorFactor":[
						2.371357614441398,
						2.371357614441398,
						2.371357614441398
					]
				},
				"KHR_materials_ior":{
					"ior":1.4500000476837158
				}
			},
			"name":"red_marinara.001",
			"pbrMetallicRoughness":{
				"baseColorFactor":[
					0.49300000071525574,
					0.1545739471912384,
					0.11043199151754379,
					1
				],
				"metallicFactor":0.5,
				"roughnessFactor":0.5527864098548889
			}
		}
	],
	"meshes":[
		{
			"name":"Mesh.024",
			"primitives":[
				{
					"attributes":{
						"POSITION":0,
						"TEXCOORD_0":1,
						"NORMAL":2
					},
					"indices":3,
					"material":0
				}
			]
		},
		{
			"name":"Mesh.039",
			"primitives":[
				{
					"attributes":{
						"POSITION":4,
						"TEXCOORD_0":5,
						"NORMAL":6
					},
					"indices":7,
					"material":1
				},
				{
					"attributes":{
						"POSITION":8,
						"TEXCOORD_0":9,
						"NORMAL":10
					},
					"indices":11,
					"material":2
				}
			]
		}
	],
	"accessors":[
		{
			"bufferView":0,
			"componentType":5126,
			"count":333,
			"max":[
				4.0667724609375,
				4.087832927703857,
				-1.2445088624954224
			],
			"min":[
				-4.026872158050537,
				-4.094569683074951,
				-1.618346095085144
			],
			"type":"VEC3"
		},
		{
			"bufferView":1,
			"componentType":5126,
			"count":333,
			"type":"VEC2"
		},
		{
			"bufferView":2,
			"componentType":5126,
			"count":333,
			"type":"VEC3"
		},
		{
			"bufferView":3,
			"componentType":5123,
			"count":1392,
			"type":"SCALAR"
		},
		{
			"bufferView":4,
			"componentType":5126,
			"count":692,
			"max":[
				5.177184104919434,
				5.177184581756592,
				0.4300000071525574
			],
			"min":[
				-5.17718505859375,
				-5.177186489105225,
				-0.5857046246528625
			],
			"type":"VEC3"
		},
		{
			"bufferView":5,
			"componentType":5126,
			"count":692,
			"type":"VEC2"
		},
		{
			"bufferView":6,
			"componentType":5126,
			"count":692,
			"type":"VEC3"
		},
		{
			"bufferView":7,
			"componentType":5123,
			"count":3240,
			"type":"SCALAR"
		},
		{
			"bufferView":8,
			"componentType":5126,
			"count":322,
			"max":[
				4.218716621398926,
				4.3217453956604,
				-0.15371496975421906
			],
			"min":[
				-4.218717575073242,
				-4.238286972045898,
				-0.47999995946884155
			],
			"type":"VEC3"
		},
		{
			"bufferView":9,
			"componentType":5126,
			"count":322,
			"type":"VEC2"
		},
		{
			"bufferView":10,
			"componentType":5126,
			"count":322,
			"type":"VEC3"
		},
		{
			"bufferView":11,
			"componentType":5123,
			"count":1800,
			"type":"SCALAR"
		}
	],
	"bufferViews":[
		{
			"buffer":0,
			"byteLength":3996,
			"byteOffset":0,
			"target":34962
		},
		{
			"buffer":0,
			"byteLength":2664,
			"byteOffset":3996,
			"target":34962
		},
		{
			"buffer":0,
			"byteLength":3996,
			"byteOffset":6660,
			"target":34962
		},
		{
			"buffer":0,
			"byteLength":2784,
			"byteOffset":10656,
			"target":34963
		},
		{
			"buffer":0,
			"byteLength":8304,
			"byteOffset":13440,
			"target":34962
		},
		{
			"buffer":0,
			"byteLength":5536,
			"byteOffset":21744,
			"target":34962
		},
		{
			"buffer":0,
			"byteLength":8304,
			"byteOffset":27280,
			"target":34962
		},
		{
			"buffer":0,
			"byteLength":6480,
			"byteOffset":35584,
			"target":34963
		},
		{
			"buffer":0,
			"byteLength":3864,
			"byteOffset":42064,
			"target":34962
		},
		{
			"buffer":0,
			"byteLength":2576,
			"byteOffset":45928,
			"target":34962
		},
		{
			"buffer":0,
			"byteLength":3864,
			"byteOffset":48504,
			"target":34962
		},
		{
			"buffer":0,
			"byteLength":3600,
			"byteOffset":52368,
			"target":34963
		}
	],
	"buffers":[
		{
			"byteLength":55968,
			"uri":"data:application/octet-stream;base64,"
		}
	]
}
