{
	"asset":{
		"generator":"Khronos glTF Blender I/O v3.5.30",
		"version":"2.0"
	},
	"extensionsUsed":[
		"KHR_materials_specular",
		"KHR_materials_ior"
	],
	"scene":0,
	"scenes":[
		{
			"name":"Scene",
			"nodes":[
				0,
				7,
				8
			]
		}
	],
	"nodes":[
		{
			"mesh":0,
			"name":"cheese",
			"rotation":[
				0.7071068286895752,
				0,
				0,
				0.7071068286895752
			],
			"scale":[
				0.009999999776482582,
				0.009999999776482582,
				0.009999999776482582
			]
		},
		{
			"mesh":1,
			"name":"polySurface142",
			"translation":[
				-3.033200740814209,
				6.5817742347717285,
				1.9393221139907837
			]
		},
		{
			"mesh":2,
			"name":"polySurface143",
			"translation":[
				-7.146857738494873,
				8.640007972717285,
				1.0292930603027344
			]
		},
		{
			"mesh":3,
			"name":"polySurface144",
			"translation":[
				-4.205307960510254,
				9.027732849121094,
				0.6527165770530701
			]
		},
		{
			"mesh":4,
			"name":"polySurface145",
			"translation":[
				-7.149989128112793,
				3.9178173542022705,
				-0.19058166444301605
			]
		},
		{
			"mesh":5,
			"name":"polySurface146",
			"translation":[
				-8.31013011932373,
				6.667759895324707,
				0.16521787643432617
			]
		},
		{
			"mesh":6,
			"name":"polySurface147",
			"translation":[
				-4.344681739807129,
				3.841002941131592,
				1.446157693862915
			]
		},
		{
			"children":[
				1,
				2,
				3,
				4,
				5,
				6
			],
			"name":"sausage",
			"rotation":[
				0.7071068286895752,
				0,
				0,
				0.7071068286895752
			],
			"scale":[
				0.009999999776482582,
				0.009999999776482582,
				0.009999999776482582
			]
		},
		{
			"mesh":7,
			"name":"thin",
			"rotation":[
				0.7071068286895752,
				0,
				0,
				0.7071068286895752
			],
			"scale":[
				0.009999999776482582,
				0.009999999776482582,
				0.009999999776482582
			],
			"translation":[
				0,
				0.011426957324147224,
				0
			]
		}
	],
	"materials":[
		{
			"doubleSided":true,
			"extensions":{
				"KHR_materials_specular":{
					"specularColorFactor":[
						2.371357614441398,
						2.371357614441398,
						2.371357614441398
					]
				},
				"KHR_materials_ior":{
					"ior":1.4500000476837158
				}
			},
			"name":"yellow_mozzarella",
			"pbrMetallicRoughness":{
				"baseColorFactor":[
					0.9748427867889404,
					1,
					0.3460000157356262,
					1
				],
				"metallicFactor":0.5,
				"roughnessFactor":0.5527864098548889
			}
		},
		{
			"doubleSided":true,
			"extensions":{
				"KHR_materials_specular":{
					"specularColorFactor":[
						2.371357614441398,
						2.371357614441398,
						2.371357614441398
					]
				},
				"KHR_materials_ior":{
					"ior":1.4500000476837158
				}
			},
			"name":"red_pepperoni",
			"pbrMetallicRoughness":{
				"baseColorFactor":[
					0.3779999911785126,
					0.1627560406923294,
					0.11151000112295151,
					1
				],
				"metallicFactor":0.5,
				"roughnessFactor":0.5527864098548889
			}
		},
		{
			"doubleSided":true,
			"extensions":{
				"KHR_materials_specular":{
					"specularColorFactor":[
						2.371357614441398,
						2.371357614441398,
						2.371357614441398
					]
				},
				"KHR_materials_ior":{
					"ior":1.4500000476837158
				}
			},
			"name":"phong13.002",
			"pbrMetallicRoughness":{
				"baseColorFactor":[
					0.6430000066757202,
					0.5374996662139893,
					0.33821800351142883,
					1
				],
				"metallicFactor":0.5,
				"roughnessFactor":0.5527864098548889
			}
		},
		{
			"doubleSided":true,
			"extensions":{
				"KHR_materials_specular":{
					"specularColorFactor":[
						2.371357614441398,
						2.371357614441398,
						2.371357614441398
					]
				},
				"KHR_materials_ior":{
					"ior":1.4500000476837158
				}
			},
			"name":"red_marinara.002",
			"pbrMetallicRoughness":{
				"baseColorFactor":[
					0.49300000071525574,
					0.1545739471912384,
					0.11043199151754379,
					1
				],
				"metallicFactor":0.5,
				"roughnessFactor":0.5527864098548889
			}
		}
	],
	"meshes":[
		{
			"name":"Mesh.024",
			"primitives":[
				{
					"attributes":{
						"POSITION":0,
						"TEXCOORD_0":1,
						"NORMAL":2
					},
					"indices":3,
					"material":0
				}
			]
		},
		{
			"name":"Mesh.025",
			"primitives":[
				{
					"attributes":{
						"POSITION":4,
						"TEXCOORD_0":5,
						"NORMAL":6
					},
					"indices":7,
					"material":1
				}
			]
		},
		{
			"name":"Mesh.026",
			"primitives":[
				{
					"attributes":{
						"POSITION":8,
						"TEXCOORD_0":9,
						"NORMAL":10
					},
					"indices":11,
					"material":1
				}
			]
		},
		{
			"name":"Mesh.027",
			"primitives":[
				{
					"attributes":{
						"POSITION":12,
						"TEXCOORD_0":13,
						"NORMAL":14
					},
					"indices":15,
					"material":1
				}
			]
		},
		{
			"name":"Mesh.028",
			"primitives":[
				{
					"attributes":{
						"POSITION":16,
						"TEXCOORD_0":17,
						"NORMAL":18
					},
					"indices":19,
					"material":1
				}
			]
		},
		{
			"name":"Mesh.029",
			"primitives":[
				{
					"attributes":{
						"POSITION":20,
						"TEXCOORD_0":21,
						"NORMAL":22
					},
					"indices":23,
					"material":1
				}
			]
		},
		{
			"name":"Mesh.030",
			"primitives":[
				{
					"attributes":{
						"POSITION":24,
						"TEXCOORD_0":25,
						"NORMAL":26
					},
					"indices":27,
					"material":1
				}
			]
		},
		{
			"name":"Mesh.040",
			"primitives":[
				{
					"attributes":{
						"POSITION":28,
						"TEXCOORD_0":29,
						"NORMAL":30
					},
					"indices":31,
					"material":2
				},
				{
					"attributes":{
						"POSITION":32,
						"TEXCOORD_0":33,
						"NORMAL":34
					},
					"indices":35,
					"material":3
				}
			]
		}
	],
	"accessors":[
		{
			"bufferView":0,
			"componentType":5126,
			"count":333,
			"max":[
				4.0667724609375,
				4.087832927703857,
				-1.2445088624954224
			],
			"min":[
				-4.026872158050537,
				-4.094569683074951,
				-1.618346095085144
			],
			"type":"VEC3"
		},
		{
			"bufferView":1,
			"componentType":5126,
			"count":333,
			"type":"VEC2"
		},
		{
			"bufferView":2,
			"componentType":5126,
			"count":333,
			"type":"VEC3"
		},
		{
			"bufferView":3,
			"componentType":5123,
			"count":1392,
			"type":"SCALAR"
		},
		{
			"bufferView":4,
			"componentType":5126,
			"count":297,
			"max":[
				6.062588214874268,
				-5.528429985046387,
				-3.3810367584228516
			],
			"min":[
				4.590973377227783,
				-7.031208038330078,
				-3.5982987880706787
			],
			"type":"VEC3"
		},
		{
			"bufferView":5,
			"componentType":5126,
			"count":297,
			"type":"VEC2"
		},
		{
			"bufferView":6,
			"componentType":5126,
			"count":297,
			"type":"VEC3"
		},
		{
			"bufferView":7,
			"componentType":5123,
			"count":1320,
			"type":"SCALAR"
		},
		{
			"bufferView":8,
			"componentType":5126,
			"count":296,
			"max":[
				6.078878402709961,
				-5.527627944946289,
				-2.483232259750366
			],
			"min":[
				4.593516826629639,
				-7.032993316650391,
				-2.693756580352783
			],
			"type":"VEC3"
		},
		{
			"bufferView":9,
			"componentType":5126,
			"count":296,
			"type":"VEC2"
		},
		{
			"bufferView":10,
			"componentType":5126,
			"count":296,
			"type":"VEC3"
		},
		{
			"bufferView":11,
			"componentType":5123,
			"count":1320,
			"type":"SCALAR"
		},
		{
			"bufferView":12,
			"componentType":5126,
			"count":297,
			"max":[
				6.093530178070068,
				-5.531801223754883,
				-2.1040353775024414
			],
			"min":[
				4.593542098999023,
				-7.027811527252197,
				-2.318542242050171
			],
			"type":"VEC3"
		},
		{
			"bufferView":13,
			"componentType":5126,
			"count":297,
			"type":"VEC2"
		},
		{
			"bufferView":14,
			"componentType":5126,
			"count":297,
			"type":"VEC3"
		},
		{
			"bufferView":15,
			"componentType":5123,
			"count":1320,
			"type":"SCALAR"
		},
		{
			"bufferView":16,
			"componentType":5126,
			"count":297,
			"max":[
				6.092401504516602,
				-5.522610187530518,
				-1.2680351734161377
			],
			"min":[
				4.586258888244629,
				-7.032419681549072,
				-1.5152727365493774
			],
			"type":"VEC3"
		},
		{
			"bufferView":17,
			"componentType":5126,
			"count":297,
			"type":"VEC2"
		},
		{
			"bufferView":18,
			"componentType":5126,
			"count":297,
			"type":"VEC3"
		},
		{
			"bufferView":19,
			"componentType":5123,
			"count":1320,
			"type":"SCALAR"
		},
		{
			"bufferView":20,
			"componentType":5126,
			"count":313,
			"max":[
				6.094488620758057,
				-5.527829647064209,
				-1.6108595132827759
			],
			"min":[
				4.627995491027832,
				-7.031233310699463,
				-1.9644792079925537
			],
			"type":"VEC3"
		},
		{
			"bufferView":21,
			"componentType":5126,
			"count":313,
			"type":"VEC2"
		},
		{
			"bufferView":22,
			"componentType":5126,
			"count":313,
			"type":"VEC3"
		},
		{
			"bufferView":23,
			"componentType":5123,
			"count":1320,
			"type":"SCALAR"
		},
		{
			"bufferView":24,
			"componentType":5126,
			"count":297,
			"max":[
				6.119221210479736,
				-5.536004543304443,
				-2.8997392654418945
			],
			"min":[
				4.593658924102783,
				-7.0312018394470215,
				-3.1277120113372803
			],
			"type":"VEC3"
		},
		{
			"bufferView":25,
			"componentType":5126,
			"count":297,
			"type":"VEC2"
		},
		{
			"bufferView":26,
			"componentType":5126,
			"count":297,
			"type":"VEC3"
		},
		{
			"bufferView":27,
			"componentType":5123,
			"count":1320,
			"type":"SCALAR"
		},
		{
			"bufferView":28,
			"componentType":5126,
			"count":692,
			"max":[
				4.872458457946777,
				4.8724589347839355,
				0.12293758988380432
			],
			"min":[
				-4.872459411621094,
				-4.872460842132568,
				-0.2762613892555237
			],
			"type":"VEC3"
		},
		{
			"bufferView":29,
			"componentType":5126,
			"count":692,
			"type":"VEC2"
		},
		{
			"bufferView":30,
			"componentType":5126,
			"count":692,
			"type":"VEC3"
		},
		{
			"bufferView":31,
			"componentType":5123,
			"count":3240,
			"type":"SCALAR"
		},
		{
			"bufferView":32,
			"componentType":5126,
			"count":322,
			"max":[
				4.129074573516846,
				4.064278602600098,
				0.09000009298324585
			],
			"min":[
				-4.12907600402832,
				-4.399428367614746,
				-0.18400180339813232
			],
			"type":"VEC3"
		},
		{
			"bufferView":33,
			"componentType":5126,
			"count":322,
			"type":"VEC2"
		},
		{
			"bufferView":34,
			"componentType":5126,
			"count":322,
			"type":"VEC3"
		},
		{
			"bufferView":35,
			"componentType":5123,
			"count":1800,
			"type":"SCALAR"
		}
	],
	"bufferViews":[
		{
			"buffer":0,
			"byteLength":3996,
			"byteOffset":0,
			"target":34962
		},
		{
			"buffer":0,
			"byteLength":2664,
			"byteOffset":3996,
			"target":34962
		},
		{
			"buffer":0,
			"byteLength":3996,
			"byteOffset":6660,
			"target":34962
		},
		{
			"buffer":0,
			"byteLength":2784,
			"byteOffset":10656,
			"target":34963
		},
		{
			"buffer":0,
			"byteLength":3564,
			"byteOffset":13440,
			"target":34962
		},
		{
			"buffer":0,
			"byteLength":2376,
			"byteOffset":17004,
			"target":34962
		},
		{
			"buffer":0,
			"byteLength":3564,
			"byteOffset":19380,
			"target":34962
		},
		{
			"buffer":0,
			"byteLength":2640,
			"byteOffset":22944,
			"target":34963
		},
		{
			"buffer":0,
			"byteLength":3552,
			"byteOffset":25584,
			"target":34962
		},
		{
			"buffer":0,
			"byteLength":2368,
			"byteOffset":29136,
			"target":34962
		},
		{
			"buffer":0,
			"byteLength":3552,
			"byteOffset":31504,
			"target":34962
		},
		{
			"buffer":0,
			"byteLength":2640,
			"byteOffset":35056,
			"target":34963
		},
		{
			"buffer":0,
			"byteLength":3564,
			"byteOffset":37696,
			"target":34962
		},
		{
			"buffer":0,
			"byteLength":2376,
			"byteOffset":41260,
			"target":34962
		},
		{
			"buffer":0,
			"byteLength":3564,
			"byteOffset":43636,
			"target":34962
		},
		{
			"buffer":0,
			"byteLength":2640,
			"byteOffset":47200,
			"target":34963
		},
		{
			"buffer":0,
			"byteLength":3564,
			"byteOffset":49840,
			"target":34962
		},
		{
			"buffer":0,
			"byteLength":2376,
			"byteOffset":53404,
			"target":34962
		},
		{
			"buffer":0,
			"byteLength":3564,
			"byteOffset":55780,
			"target":34962
		},
		{
			"buffer":0,
			"byteLength":2640,
			"byteOffset":59344,
			"target":34963
		},
		{
			"buffer":0,
			"byteLength":3756,
			"byteOffset":61984,
			"target":34962
		},
		{
			"buffer":0,
			"byteLength":2504,
			"byteOffset":65740,
			"target":34962
		},
		{
			"buffer":0,
			"byteLength":3756,
			"byteOffset":68244,
			"target":34962
		},
		{
			"buffer":0,
			"byteLength":2640,
			"byteOffset":72000,
			"target":34963
		},
		{
			"buffer":0,
			"byteLength":3564,
			"byteOffset":74640,
			"target":34962
		},
		{
			"buffer":0,
			"byteLength":2376,
			"byteOffset":78204,
			"target":34962
		},
		{
			"buffer":0,
			"byteLength":3564,
			"byteOffset":80580,
			"target":34962
		},
		{
			"buffer":0,
			"byteLength":2640,
			"byteOffset":84144,
			"target":34963
		},
		{
			"buffer":0,
			"byteLength":8304,
			"byteOffset":86784,
			"target":34962
		},
		{
			"buffer":0,
			"byteLength":5536,
			"byteOffset":95088,
			"target":34962
		},
		{
			"buffer":0,
			"byteLength":8304,
			"byteOffset":100624,
			"target":34962
		},
		{
			"buffer":0,
			"byteLength":6480,
			"byteOffset":108928,
			"target":34963
		},
		{
			"buffer":0,
			"byteLength":3864,
			"byteOffset":115408,
			"target":34962
		},
		{
			"buffer":0,
			"byteLength":2576,
			"byteOffset":119272,
			"target":34962
		},
		{
			"buffer":0,
			"byteLength":3864,
			"byteOffset":121848,
			"target":34962
		},
		{
			"buffer":0,
			"byteLength":3600,
			"byteOffset":125712,
			"target":34963
		}
	],
	"buffers":[
		{
			"byteLength":129312,
			"uri":"data:application/octet-stream;base64,"
		}
	]
}
